<?xml version="1.0" standalone="no"?><!DOCTYPE svg PUBLIC "-//W3C//DTD SVG 1.1//EN" "http://www.w3.org/Graphics/SVG/1.1/DTD/svg11.dtd"><svg t="1718527343031" class="icon" viewBox="0 0 1024 1024" version="1.1" xmlns="http://www.w3.org/2000/svg" p-id="6124" xmlns:xlink="http://www.w3.org/1999/xlink" width="200" height="200"><path d="M793.7 666.1l22.9 16.2c20.2-12.3 41.4-23 63.6-31.8-44.2-13.9-93.5-23.1-146.4-27.6l-25.5-2-2-25.5c-7.5-93.2-34.4-222.3-120.3-308.2-26.6-26.6-57.4-47.6-90.1-64.1-5.6 24-13.6 47.4-24 69.9l75.6 75.6c29.6 29.6 29.6 77.6 0 107.2-32.9 32.9-76.6 51-123.2 51s-90.3-18.1-123.2-51l-4.7-4.7c-23.6 11.4-48.2 20.1-73.6 26.1 1.5 2.9 3 5.8 4.5 8.6h95.5c8.3 0 15 6.7 15 15s-6.7 15-15 15h-77.6c4.5 6.8 9.3 13.5 14.3 20H363c8.3 0 15 6.7 15 15s-6.7 15-15 15h-77.1l0.9 0.9c7.1 7 14.5 13.7 22.1 20 1.7-0.6 3.4-0.9 5.2-0.9h101c8.3 0 15 6.7 15 15s-6.7 15-15 15h-65.2c12.1 7.4 24.6 14 37.3 20h97.9c8.3 0 15 6.7 15 15s-6.7 15-15 15h-15.3c37.4 10.2 74.4 16.2 107.8 19.6 0.5 0.1 1.1 0.1 1.7 0.2h0.3c1.6 0.2 3.3 0.3 4.9 0.5 24 1.2 64.3-11.9 86.8-42.8 4.9-6.7 14.3-8.2 21-3.3s8.2 14.3 3.3 21c-18.1 24.8-42.6 38.3-59.9 45.2-4.5 1.8-9 3.4-13.5 4.7l0.3 3.7c4.2 52.2 13.2 101 26.8 144.8 12.1-29.7 27.5-57.6 45.9-83.5l-15-20c-5-6.6-3.6-16 3-21s16-3.6 21 3l9.9 13.3c7.9-9.6 16.3-18.7 25.1-27.6l-15.7-15.7c-5.9-5.8-5.9-15.3 0-21.2 5.8-5.9 15.3-5.9 21.2 0l16.4 16.4c9.3-8.1 18.9-15.8 28.8-23l-13.5-9.5c-6.8-4.8-8.4-14.1-3.6-20.9 4.8-6.8 14.1-8.4 20.9-3.6z" fill="#E9B59B" p-id="6125"></path><path d="M218.4 164.5c-13.7 0-27.5 6-38.1 16.6-10.6 10.7-16.7 24.7-16.6 38.5 0.6 62.3 8.6 160.4 46.3 249.9 129.6-28.1 230.4-129.3 258-259-89.3-37.5-187-45.5-249.2-46h-0.4z" fill="#E9B59B" p-id="6126"></path><path d="M324.2 456.5c27 26.1 62.4 40.5 100.1 40.5 38.5 0 74.7-15 101.9-42.2 8.6-8.7 13.4-20.2 13.4-32.4s-4.7-23.7-13.4-32.4l-68.7-68.7c-16.3 28.4-36.2 54.6-59.4 77.9-22.2 22.3-47 41.5-73.9 57.3z" fill="#E9B59B" p-id="6127"></path><path d="M170 149s30 216.7 126 349c98 135 213 171 331 192 25 51 40 134 65 150s-26 64-26 64l-38-10-40-155s-238-4-328-137-196-436-90-453z" fill="#D38B6C" p-id="6128"></path><path d="M161.5 174.6s216.7 21.3 348.4 118.1c134.4 98.8 169.7 214 190 332.2 50.8 25.3 133.8 40.8 149.6 65.9 15.8 25.1 64.2-25.6 64.2-25.6l-9.8-38.1-154.8-40.9s-2.5-238-135-328.8-434.9-188.7-452.6-82.8z" fill="#FFD7BD" p-id="6129"></path><path d="M940.2 648.2c-1-25.7-17.4-47.3-41.9-55-41.4-13-86.6-22.2-134.6-27.5-5.9-53.9-16.8-104.1-32.4-149.6-23.7-69-58.3-126.6-102.9-171.1-52.9-52.9-123.9-91.6-211-115-75.5-20.3-149.4-25-198.1-25.5-29.8-0.2-59.5 12.2-81.4 34.1-22 22-34.4 51.6-34.1 81.4 0.4 48.7 5.2 122.6 25.5 198.1 23.4 87 62.1 158 115 211 44.5 44.5 102.1 79.1 171.1 102.9 45.4 15.6 95.7 26.5 149.6 32.4 5.2 47.3 14.3 91.9 27 132.8 7.6 24.4 29 40.9 54.6 42 0.9 0 1.8 0.1 2.7 0.1 24.5 0 46.1-14.4 55.5-37.3 36.3-89 108.4-160.4 197.7-195.8 23.8-9.5 38.7-32.2 37.7-58zM457.5 321.3l68.7 68.7c8.7 8.7 13.4 20.2 13.4 32.4s-4.8 23.7-13.4 32.4C499 482 462.8 497 424.3 497c-37.7 0-73.1-14.4-100.1-40.5 26.9-15.8 51.7-35 73.9-57.3 23.2-23.3 43.1-49.5 59.4-77.9zM180.3 181.1c10.6-10.6 24.4-16.6 38.1-16.6h0.4c62.2 0.5 159.9 8.5 249.2 46-27.6 129.7-128.4 230.9-258 259-37.7-89.5-45.7-187.6-46.3-249.9-0.1-13.8 6-27.8 16.6-38.5z m699.9 469.4c-22.2 8.8-43.4 19.5-63.6 31.8l-22.9-16.2c-6.8-4.8-16.1-3.2-20.9 3.6-4.8 6.8-3.2 16.1 3.6 20.9l13.5 9.5c-9.9 7.2-19.5 14.9-28.8 23l-16.4-16.4c-5.9-5.9-15.4-5.9-21.2 0-5.9 5.9-5.9 15.4 0 21.2l15.7 15.7c-8.8 8.9-17.2 18-25.1 27.6l-9.9-13.3c-5-6.6-14.4-8-21-3s-8 14.4-3 21l15 20c-18.4 25.9-33.8 53.8-45.9 83.5-13.6-43.8-22.6-92.6-26.8-144.8l-0.3-3.7c4.5-1.3 9-2.9 13.5-4.7 17.3-6.9 41.8-20.4 59.9-45.2 4.9-6.7 3.4-16.1-3.3-21s-16.1-3.4-21 3.3c-22.5 30.9-62.8 44-86.8 42.8-1.6-0.2-3.3-0.3-4.9-0.5h-0.3c-0.6-0.1-1.2-0.1-1.7-0.2-33.4-3.4-70.4-9.4-107.8-19.6h15.3c8.3 0 15-6.7 15-15s-6.7-15-15-15h-97.9c-12.7-6-25.2-12.6-37.3-20h65.2c8.3 0 15-6.7 15-15s-6.7-15-15-15h-101c-1.8 0-3.5 0.3-5.2 0.9-7.6-6.3-15-13-22.1-20l-0.9-0.9H363c8.3 0 15-6.7 15-15s-6.7-15-15-15H259.5c-5-6.5-9.8-13.2-14.3-20h77.6c8.3 0 15-6.7 15-15s-6.7-15-15-15h-95.5c-1.5-2.8-3-5.7-4.5-8.6 25.4-6 50-14.7 73.6-26.1l4.7 4.7c32.9 32.9 76.6 51 123.2 51s90.3-18.1 123.2-51c29.6-29.6 29.6-77.6 0-107.2L471.9 293c10.4-22.5 18.4-45.9 24-69.9 32.7 16.5 63.5 37.5 90.1 64.1 85.9 85.9 112.8 215 120.3 308.2l2 25.5 25.5 2c52.9 4.5 102.2 13.7 146.4 27.6 0.1 0 0 0 0 0z" fill="#561F00" p-id="6130"></path><path d="M329.5 266.3m-30 0a30 30 0 1 0 60 0 30 30 0 1 0-60 0Z" fill="#561F00" p-id="6131"></path></svg>